<?xml version="1.0" standalone="no"?><!DOCTYPE svg PUBLIC "-//W3C//DTD SVG 1.1//EN" "http://www.w3.org/Graphics/SVG/1.1/DTD/svg11.dtd"><svg t="1631337668782" class="icon" viewBox="0 0 1024 1024" version="1.1" xmlns="http://www.w3.org/2000/svg" p-id="15871" xmlns:xlink="http://www.w3.org/1999/xlink" width="200" height="200"><defs><style type="text/css"></style></defs><path d="M170 942c-28 0-50-8-66-23-21-22-28-58-18-106 8-41 26-90 54-145 52-101 132-213 204-286 56-55 109-79 162-73 43 5 85 30 132 77s71 89 76 131c7 54-17 107-73 162-72 73-184 153-286 204-55 28-104 47-144 54-15 3-28 5-41 5z m319-604c-39 0-80 22-123 65-71 71-149 180-199 279-55 106-70 187-41 216 28 28 109 13 216-41 98-51 208-129 278-199l11 11-11-11c49-49 70-93 64-137-4-36-26-72-68-114s-78-64-114-68l-13-1z" p-id="15872"></path><path d="M627 396s93-55 122-123" p-id="15873"></path><path d="M635 409l-16-25 8 12-8-13c1 0 90-53 116-116l28 12c-31 72-124 128-128 130z" p-id="15874"></path><path d="M707 472l-35-3 5-30c40 6 69 1 83-15 18-20 9-53 9-53l-2-9 6-6c39-40 49-61 54-75 8-24 2-45-19-66a62 62 0 0 0-47-20c-49 2-96 55-96 55l-6 6-7-1c-23-3-40 2-51 13-20 22-19 64-17 79l-29 4c-1-2-11-67 24-103 17-18 40-25 69-23 15-16 61-58 112-60 26-1 49 9 69 29 29 29 38 62 26 97-10 29-33 57-55 80 3 16 4 49-17 73-17 18-42 28-76 28z" p-id="15875"></path><path d="M490 336c-2-2-45-35-40-80 3-30 26-55 69-77 2-9 7-27 16-44 24-47 57-53 79-51 29 4 50 16 63 36 29 43 10 109 9 112l-28-8c0-1 15-56-6-88-8-12-22-20-41-22-30-3-44 25-49 35-11 21-15 43-15 43l-2 8-7 3c-36 17-56 36-59 56-3 28 29 52 29 53l-18 24z m269 242c-40 0-69-34-70-36l23-19s25 29 52 25c21-3 41-24 58-61l4-7 7-1s23-4 44-16c38-19 35-41 34-49-2-19-9-32-22-41-26-17-72-10-87-5l-8-29c2-1 68-20 112 9 20 14 32 35 35 63 3 23-4 55-50 79-17 9-35 14-45 17-21 43-47 67-78 71h-9z m-336-49c-55-52-92-114-94-116l26-15-13 7 13-7c1 0 36 60 89 109l-21 22zM214 749c-34-34-62-81-63-83l26-15c1 0 27 45 58 76l-21 22z m-50-91l13-7-13 7z m321 137c-2-1-51-19-93-64l22-21c38 40 81 56 81 56l-10 29z" p-id="15876"></path></svg>